<?xml version="1.0" encoding="utf-8"?>
<!-- Generator: Adobe Illustrator 23.0.6, SVG Export Plug-In . SVG Version: 6.00 Build 0)  -->
<svg version="1.1" id="Capa_1" xmlns="http://www.w3.org/2000/svg" xmlns:xlink="http://www.w3.org/1999/xlink" x="0px" y="0px"
	 viewBox="0 0 192 50" style="enable-background:new 0 0 192 50;" xml:space="preserve">
<style type="text/css">
	.st0{fill-rule:evenodd;clip-rule:evenodd;fill:#211915;}
</style>
<g>
	<path id="Fill-1" class="st0" d="M110.7,14.3c1.5,0,1.8,1,1.8,2.4V27h-3.5V16.7C108.9,15.3,109.2,14.3,110.7,14.3z"/>
	<path id="Fill-3" class="st0" d="M100.5,16c0-1.5-0.8-1.7-2-1.7h-1.3v9.2h1.5c1.1,0,1.7-0.3,1.7-1.8V16z"/>
	<g id="Group-7" transform="translate(142.253521, 0.213028)">
		<path id="Fill-5" class="st0" d="M-27.7,33.6l-0.4,0.3l0.4,0.3l-0.4,0.3l0.4,0.3l-0.4,0.3l0.4,0.3l-0.4,0.3h0l-1.1,1.1
			c0,0-0.8,0.4-2.4,0.4c-1.6,0-2.4-0.4-2.4-0.4l-1.1-1.1l-0.4-0.3l0.4-0.3l-0.4-0.3l0.4-0.3l-0.4-0.3l0.4-0.3l-0.4-0.3l0.4-0.3
			l-1.6-1.5v-4.9h1.1V16.4c0-2.5,0.9-4.3,4.1-4.3c3.1,0,4.1,1.8,4.1,4.3v10.4h1.1v4.9l-1.6,1.5h0L-27.7,33.6z M-39.3,37.4h-2.3V26.8
			c0-1.2-0.7-1.5-1.8-1.5H-45v12.1h-2.3V12.1h4.3c2.2,0,3.6,0.4,3.6,2.9v6.4c0,2-0.7,2.6-2.5,2.7v0.1c1.6,0.1,2.6,0.6,2.6,2.3V37.4z
			 M-50.2,14.1H-54v9.2h3.6v2H-54v10.2h3.8v2h-6.1V12.1h6.1V14.1z M-58.9,18.7h-2.3v-3.3c0-1.1-0.4-1.6-1.3-1.6
			c-0.9,0-1.3,0.5-1.3,1.6V34c0,1.1,0.4,1.6,1.3,1.6c0.9,0,1.3-0.5,1.3-1.6v-3.5h2.3v3.6c0,2.1-1.2,3.5-3.6,3.5
			c-2.4,0-3.6-1.4-3.6-3.5V15.4c0-2.1,1.2-3.5,3.6-3.5c2.4,0,3.6,1.4,3.6,3.5V18.7z M-71,24.8c0,13.7,11.1,24.8,24.8,24.8
			c13.7,0,24.8-11.1,24.8-24.8C-21.5,11.1-32.6,0-46.3,0C-59.9,0-71,11.1-71,24.8z"/>
	</g>
</g>
</svg>
