<?xml version="1.0" encoding="utf-8"?>
<!-- Generator: Adobe Illustrator 23.0.6, SVG Export Plug-In . SVG Version: 6.00 Build 0)  -->
<svg version="1.1" id="Capa_1" xmlns="http://www.w3.org/2000/svg" xmlns:xlink="http://www.w3.org/1999/xlink" x="0px" y="0px"
	 viewBox="0 0 192 50" style="enable-background:new 0 0 192 50;" xml:space="preserve">
<style type="text/css">
	.st0{fill-rule:evenodd;clip-rule:evenodd;fill:#A9C57B;}
</style>
<title>Page 1 Copy</title>
<desc>Created with Sketch.</desc>
<g id="ENERGÃA-CERO-WEB">
	<g transform="translate(-72.000000, -56.000000)">
		<g id="Group-6" transform="translate(72.000000, 56.000000)">
			<g id="Page-1-Copy">
				<path id="Fill-1" class="st0" d="M181.7,14.4c1.5,0,1.8,1,1.8,2.4v10.4h-3.5V16.8C179.9,15.4,180.2,14.4,181.7,14.4z"/>
				<path id="Fill-3" class="st0" d="M171.5,16.1c0-1.5-0.8-1.7-2-1.7h-1.3v9.2h1.5c1.1,0,1.7-0.3,1.7-1.8V16.1z"/>
				<g id="Group-7" transform="translate(142.253521, 0.213028)">
					<path id="Fill-5" class="st0" d="M43.3,33.7L42.9,34l0.4,0.3l-0.4,0.3l0.4,0.3l-0.4,0.3l0.4,0.3L42.9,36h0L41.8,37
						c0,0-0.8,0.4-2.4,0.4C37.9,37.5,37,37,37,37L35.9,36l-0.4-0.3l0.4-0.3L35.5,35l0.4-0.3l-0.4-0.3l0.4-0.3l-0.4-0.3l0.4-0.3
						l-1.6-1.5v-4.9h1.1V16.5c0-2.5,0.9-4.3,4.1-4.3c3.1,0,4.1,1.8,4.1,4.3v10.4h1.1v4.9L43,33.4h0L43.3,33.7z M31.7,37.5h-2.3V26.9
						c0-1.2-0.7-1.5-1.8-1.5H26v12.1h-2.3V12.2H28c2.2,0,3.6,0.4,3.6,2.9v6.4c0,2-0.7,2.6-2.5,2.7v0.1c1.6,0.1,2.6,0.6,2.6,2.3V37.5
						z M20.8,14.2H17v9.2h3.6v2H17v10.2h3.8v2h-6.1V12.2h6.1V14.2z M12.2,18.8H9.8v-3.3c0-1.1-0.4-1.6-1.3-1.6
						c-0.9,0-1.3,0.5-1.3,1.6v18.5c0,1.1,0.4,1.6,1.3,1.6c0.9,0,1.3-0.5,1.3-1.6v-3.5h2.3v3.6c0,2.1-1.2,3.5-3.6,3.5
						c-2.4,0-3.6-1.4-3.6-3.5V15.5c0-2.1,1.2-3.5,3.6-3.5c2.4,0,3.6,1.4,3.6,3.5V18.8z M0,24.9c0,13.7,11.1,24.8,24.8,24.8
						c13.7,0,24.8-11.1,24.8-24.8c0-13.7-11.1-24.8-24.8-24.8C11.1,0.1,0,11.2,0,24.9z"/>
				</g>
				<polygon id="Fill-8" class="st0" points="18.2,17.1 5.1,17.1 5.1,22.3 17.1,22.3 17.1,26.7 5.1,26.7 5.1,33.1 18.8,33.1 
					18.8,37.5 0,37.5 0,12.7 18.2,12.7 				"/>
				<polygon id="Fill-11" class="st0" points="35.9,12.7 40.8,12.7 40.8,37.5 35.6,37.5 25.5,19.8 25.4,19.8 25.4,37.5 20.6,37.5 
					20.6,12.7 26.1,12.7 35.9,30 35.9,30 				"/>
				<polygon id="Fill-13" class="st0" points="61.5,17.1 48.3,17.1 48.3,22.3 60.4,22.3 60.4,26.7 48.3,26.7 48.3,33.1 62.1,33.1 
					62.1,37.5 43.3,37.5 43.3,12.7 61.5,12.7 				"/>
				<path id="Fill-15" class="st0" d="M74.9,23.6c2.7,0,4-0.9,4-3.4c0-1.3-0.6-3.2-3.6-3.2h-6.4v6.6H74.9z M63.8,12.7h12.5
					c6.6,0,7.8,4.9,7.8,7c0,2.7-1.4,5.1-3.8,5.9c2,0.9,3.1,1.7,3.1,6.3c0,3.6,0,4.5,1.1,4.9v0.7h-5.7c-0.3-1.2-0.6-2.4-0.6-5
					c0-3.4-0.2-4.7-4-4.7h-5.3v9.7h-5.1V12.7z"/>
				<path id="Fill-17" class="st0" d="M98.3,24.1h10.3v13.3h-3.4l-0.5-3.1c-1.3,1.5-3.2,3.8-7.7,3.8c-6,0-11.4-4.3-11.4-13
					c0-6.7,3.7-13.1,12-13.1h0.1c7.6,0,10.6,4.9,10.9,8.3h-5.2c0-1-1.8-4.1-5.4-4.1c-3.7,0-7.1,2.5-7.1,8.9c0,6.8,3.7,8.5,7.2,8.5
					c1.1,0,4.9-0.4,6-5.4h-5.8V24.1z"/>
				<path id="Fill-19" class="st0" d="M114.7,10.3h-3.5l3.2-5h5.3L114.7,10.3z M110.6,37.5h5.2V12.7h-5.2V37.5z"/>
				<path id="Fill-21" class="st0" d="M125.6,28.1h6.3l-3.1-9.8h-0.1L125.6,28.1z M122.5,37.5h-5.4l8.8-24.7h6l8.7,24.7h-5.6
					l-1.6-5.1h-9.1L122.5,37.5z"/>
				<path id="Fill-23" class="st0" d="M3.9,41.7c0-0.2-0.1-1-1.3-1c-1.4,0-1.7,1.5-1.7,2.4c0,1.1,0.3,2.3,1.7,2.3
					c0.4,0,0.7-0.1,1-0.4c0.2-0.2,0.3-0.5,0.3-0.6h0.9c-0.1,1.2-1.2,1.6-2.2,1.6c-2.1,0-2.5-1.8-2.5-3c0-1.2,0.5-3.1,2.6-3.1
					c0.8,0,2,0.3,2.1,1.7H3.9z"/>
				<path id="Fill-25" class="st0" d="M7.5,45.5c0.6,0,1.2-0.4,1.2-1.7c0-1-0.5-1.6-1.2-1.6c-0.5,0-1.3,0.3-1.3,1.6
					C6.3,44.8,6.7,45.5,7.5,45.5 M7.6,41.8c1.6,0,2,1.3,2,2.2c0,1.2-0.7,2.2-2.1,2.2c-1.4,0-2-0.9-2-2.1C5.5,43,6,41.8,7.6,41.8"/>
				<path id="Fill-27" class="st0" d="M10.8,42.3l0-0.5h0.8l0,0.7c0.1-0.2,0.4-0.7,1.3-0.7c0.4,0,1.5,0.1,1.5,1.4V46h-0.8v-2.6
					c0-0.3,0-0.5-0.2-0.7c-0.2-0.2-0.5-0.3-0.7-0.3c-0.6,0-1.1,0.4-1.1,1.2V46h-0.8V42.3z"/>
				<path id="Fill-29" class="st0" d="M16.3,44.8c0,0.3,0.2,0.7,0.9,0.7c0.3,0,0.6-0.1,0.7-0.3C18,45.1,18,45,18,44.9
					c0-0.4-0.3-0.5-0.9-0.6c-0.9-0.2-1.6-0.4-1.6-1.2c0-0.8,0.7-1.2,1.6-1.2c0.5,0,1.2,0.1,1.5,0.6c0.1,0.2,0.1,0.4,0.1,0.6h-0.8
					c0-0.6-0.5-0.7-0.8-0.7c-0.1,0-0.8,0-0.8,0.6c0,0.4,0.4,0.5,0.6,0.5c1.1,0.3,1.4,0.3,1.6,0.6c0.2,0.2,0.3,0.5,0.3,0.8
					c0,0.5-0.3,0.9-0.6,1c-0.4,0.2-0.8,0.3-1.2,0.3c-0.8,0-1.6-0.3-1.6-1.3H16.3z"/>
				<path id="Fill-31" class="st0" d="M20.6,41.9v2.6c0,0.4,0.1,0.9,0.9,0.9c0.4,0,0.7-0.1,1-0.5c0.2-0.2,0.2-0.6,0.2-0.8v-2.3h0.8
					v3.3c0,0.1,0,0.5,0,0.8h-0.8l0-0.7c-0.1,0.3-0.4,0.7-1.3,0.7c-1,0-1.5-0.6-1.5-1.4v-2.8H20.6z"/>
				<polygon id="Fill-33" class="st0" points="24.9,46 25.7,46 25.7,40.1 24.9,40.1 				"/>
				<path id="Fill-35" class="st0" d="M26.5,41.9h0.7V41l0.8-0.2v1.1H29v0.6H28v2.5c0,0.2,0,0.5,0.5,0.5c0.2,0,0.3,0,0.4,0V46
					c-0.1,0-0.4,0-0.6,0c-0.7,0-1-0.2-1-0.9v-2.7h-0.7V41.9z"/>
				<path id="Fill-36" class="st0" d="M31.6,45.5c0.6,0,1.2-0.4,1.2-1.7c0-1-0.5-1.6-1.2-1.6c-0.5,0-1.3,0.3-1.3,1.6
					C30.4,44.8,30.8,45.5,31.6,45.5 M31.7,41.8c1.6,0,2,1.3,2,2.2c0,1.2-0.7,2.2-2.1,2.2c-1.4,0-2-0.9-2-2.1
					C29.6,43,30.1,41.8,31.7,41.8"/>
				<path id="Fill-37" class="st0" d="M34.9,42.7c0-0.3,0-0.6,0-0.8h0.8l0,0.8c0.1-0.6,0.6-0.8,1-0.8c0.2,0,0.4,0,0.5,0v0.8
					c0,0-0.1,0-0.1,0c-0.1,0-0.1,0-0.2,0c-0.9,0-1.1,0.5-1.1,1.2V46h-0.8V42.7z"/>
				<path id="Fill-38" class="st0" d="M40.7,43.5c0-0.4-0.1-1.2-1-1.2c-0.5,0-1.1,0.3-1.1,1.2H40.7z M38.6,44.1
					c0,0.8,0.3,1.5,1.2,1.5c0.5,0,0.9-0.3,1-0.9h0.8c0,0.2-0.1,0.5-0.4,0.9c-0.2,0.2-0.6,0.5-1.4,0.5c-1.3,0-1.9-0.8-1.9-2.1
					c0-0.8,0.2-1.5,0.8-1.9c0.4-0.3,0.9-0.3,1.1-0.3c1.8,0,1.8,1.6,1.8,2.3H38.6z"/>
				<path id="Fill-39" class="st0" d="M43.1,44.8c0,0.3,0.2,0.7,0.9,0.7c0.3,0,0.6-0.1,0.7-0.3c0.1-0.1,0.1-0.2,0.1-0.4
					c0-0.4-0.3-0.5-0.9-0.6c-0.9-0.2-1.6-0.4-1.6-1.2c0-0.8,0.7-1.2,1.6-1.2c0.5,0,1.2,0.1,1.5,0.6c0.1,0.2,0.1,0.4,0.1,0.6h-0.8
					c0-0.6-0.5-0.7-0.8-0.7c-0.1,0-0.8,0-0.8,0.6c0,0.4,0.4,0.5,0.6,0.5c1.1,0.3,1.4,0.3,1.6,0.6c0.2,0.2,0.3,0.5,0.3,0.8
					c0,0.5-0.3,0.9-0.6,1c-0.4,0.2-0.8,0.3-1.2,0.3c-0.8,0-1.6-0.3-1.6-1.3H43.1z"/>
				<path id="Fill-40" class="st0" d="M51.6,42.7c-0.2-0.2-0.5-0.4-0.9-0.4c-1.1,0-1.1,1.4-1.1,1.6c0,0.7,0.2,1.6,1.1,1.6
					c1.2,0,1.2-1.3,1.2-1.7C51.9,43.3,51.7,42.9,51.6,42.7L51.6,42.7z M51.9,40.1h0.8v5.2c0,0.1,0,0.4,0,0.7h-0.8l0-0.7
					c-0.1,0.1-0.2,0.3-0.4,0.4c-0.3,0.2-0.7,0.3-1,0.3c-0.5,0-1.8-0.3-1.8-2.1c0-1.6,0.9-2.2,1.9-2.2c0.9,0,1.2,0.5,1.3,0.7V40.1z"
					/>
				<path id="Fill-41" class="st0" d="M56.6,43.5c0-0.4-0.1-1.2-1-1.2c-0.5,0-1.1,0.3-1.1,1.2H56.6z M54.5,44.1
					c0,0.8,0.3,1.5,1.2,1.5c0.5,0,0.9-0.3,1-0.9h0.8c0,0.2-0.1,0.5-0.4,0.9c-0.2,0.2-0.6,0.5-1.4,0.5c-1.3,0-1.9-0.8-1.9-2.1
					c0-0.8,0.2-1.5,0.8-1.9c0.4-0.3,0.9-0.3,1.1-0.3c1.8,0,1.8,1.6,1.8,2.3H54.5z"/>
				<polygon id="Fill-42" class="st0" points="60.7,40.1 64.4,40.1 64.4,40.8 61.6,40.8 61.6,42.6 64.3,42.6 64.3,43.3 61.6,43.3 
					61.6,45.3 64.5,45.3 64.5,46 60.7,46 				"/>
				<path id="Fill-43" class="st0" d="M65.9,42.3l0-0.5h0.8l0,0.7c0.1-0.2,0.4-0.7,1.3-0.7c0.4,0,1.5,0.1,1.5,1.4V46h-0.8v-2.6
					c0-0.3,0-0.5-0.2-0.7c-0.2-0.2-0.5-0.3-0.7-0.3c-0.6,0-1.1,0.4-1.1,1.2V46h-0.8V42.3z"/>
				<path id="Fill-44" class="st0" d="M73.5,43.5c0-0.4-0.1-1.2-1-1.2c-0.5,0-1.1,0.3-1.1,1.2H73.5z M71.3,44.1
					c0,0.8,0.3,1.5,1.2,1.5c0.5,0,0.9-0.3,1-0.9h0.8c0,0.2-0.1,0.5-0.4,0.9c-0.2,0.2-0.6,0.5-1.4,0.5c-1.3,0-1.9-0.8-1.9-2.1
					c0-0.8,0.2-1.5,0.8-1.9c0.4-0.3,0.9-0.3,1.1-0.3c1.8,0,1.8,1.6,1.8,2.3H71.3z"/>
				<path id="Fill-45" class="st0" d="M75.4,42.7c0-0.3,0-0.6,0-0.8h0.8l0,0.8c0.1-0.6,0.6-0.8,1-0.8c0.2,0,0.4,0,0.5,0v0.8
					c0,0-0.1,0-0.1,0c-0.1,0-0.1,0-0.2,0c-0.9,0-1.1,0.5-1.1,1.2V46h-0.8V42.7z"/>
				<path id="Fill-46" class="st0" d="M81.1,44.9c0.2-0.2,0.3-0.4,0.3-1.2c0-0.5-0.1-0.8-0.3-1c-0.2-0.2-0.5-0.4-0.9-0.4
					c-1,0-1.1,1-1.1,1.5c0,0.6,0.2,1.5,1.1,1.5C80.7,45.3,80.9,45.2,81.1,44.9L81.1,44.9z M79.3,46.3c0,0.5,0.2,0.8,1,0.8
					c1.1,0,1.1-0.8,1.1-1.9c-0.3,0.7-1.1,0.7-1.4,0.7c-0.4,0-0.9-0.1-1.3-0.5c-0.4-0.4-0.5-1-0.5-1.5c0-1.4,0.8-2.1,1.8-2.1
					c0.8,0,1.1,0.4,1.3,0.6l0-0.6h0.7l0,0.7l0,2.6c0,1,0,1.4-0.2,1.7c-0.3,0.7-1.1,0.7-1.7,0.7c-1.6,0-1.7-0.8-1.7-1.3H79.3z"/>
				<path id="Fill-47" class="st0" d="M83.6,46h0.7v-4.1h-0.7V46z M85,39.9l-1,1.2h-0.5l0.7-1.2H85z"/>
				<path id="Fill-48" class="st0" d="M87.8,44c-0.3,0-1.5,0-1.5,0.8c0,0.3,0.2,0.7,0.8,0.7c0.4,0,0.7-0.2,0.9-0.4
					c0.2-0.3,0.2-0.5,0.2-1.1C88.1,44,88,44,87.8,44L87.8,44z M88.4,46c-0.1-0.2-0.1-0.4-0.1-0.6c-0.4,0.7-0.9,0.7-1.3,0.7
					c-0.9,0-1.4-0.5-1.4-1.2c0-0.3,0.1-0.8,0.7-1.2c0.4-0.2,1.1-0.3,1.4-0.3c0.2,0,0.3,0,0.6,0c0-0.5,0-0.7-0.1-0.9
					c-0.2-0.2-0.5-0.3-0.7-0.3c-0.8,0-0.8,0.5-0.8,0.7h-0.8c0-0.2,0-0.5,0.3-0.8c0.3-0.3,0.9-0.4,1.3-0.4c0.6,0,1.2,0.2,1.5,0.6
					C89,42.6,89,42.8,89,43l0,2c0,0.1,0,0.6,0.1,1H88.4z"/>
				<path id="Fill-49" class="st0" d="M90.8,44.8c0,0.3,0.2,0.7,0.9,0.7c0.3,0,0.6-0.1,0.7-0.3c0.1-0.1,0.1-0.2,0.1-0.4
					c0-0.4-0.3-0.5-0.9-0.6c-0.9-0.2-1.6-0.4-1.6-1.2c0-0.8,0.7-1.2,1.6-1.2c0.5,0,1.2,0.1,1.5,0.6c0.1,0.2,0.1,0.4,0.1,0.6h-0.8
					c0-0.6-0.5-0.7-0.8-0.7c-0.1,0-0.8,0-0.8,0.6c0,0.4,0.4,0.5,0.6,0.5c1.1,0.3,1.4,0.3,1.6,0.6c0.2,0.2,0.3,0.5,0.3,0.8
					c0,0.5-0.3,0.9-0.6,1c-0.4,0.2-0.8,0.3-1.2,0.3c-0.8,0-1.6-0.3-1.6-1.3H90.8z"/>
				<path id="Fill-50" class="st0" d="M97.5,42.6h1.3c0.1,0,0.6,0,0.8-0.1c0.1-0.1,0.4-0.3,0.4-0.8c0-1-0.8-1-1.2-1h-1.3V42.6z
					 M96.8,40.1h2.1c0.3,0,0.9,0,1.4,0.3c0.4,0.3,0.7,0.7,0.7,1.2c0,0.4-0.2,0.8-0.4,1c-0.3,0.3-0.5,0.3-0.7,0.4
					c0.6,0.1,0.8,0.4,0.9,1.1c0.1,0.7,0.1,1.2,0.4,1.9h-0.9c-0.1-0.4-0.2-1.1-0.3-1.6c-0.1-0.9-0.3-1.1-1.3-1.1h-1V46h-0.8V40.1z"/>
				<path id="Fill-51" class="st0" d="M104.7,43.5c0-0.4-0.1-1.2-1-1.2c-0.5,0-1.1,0.3-1.1,1.2H104.7z M102.5,44.1
					c0,0.8,0.3,1.5,1.2,1.5c0.5,0,0.9-0.3,1-0.9h0.8c0,0.2-0.1,0.5-0.4,0.9c-0.2,0.2-0.6,0.5-1.4,0.5c-1.3,0-1.9-0.8-1.9-2.1
					c0-0.8,0.2-1.5,0.8-1.9c0.4-0.3,0.9-0.3,1.1-0.3c1.8,0,1.8,1.6,1.8,2.3H102.5z"/>
				<path id="Fill-52" class="st0" d="M106.6,42.3l0-0.5h0.8l0,0.7c0.1-0.2,0.4-0.7,1.3-0.7c0.4,0,1.5,0.1,1.5,1.4V46h-0.8v-2.6
					c0-0.3,0-0.5-0.2-0.7c-0.2-0.2-0.5-0.3-0.7-0.3c-0.6,0-1.1,0.4-1.1,1.2V46h-0.8V42.3z"/>
				<path id="Fill-53" class="st0" d="M113.3,45.5c0.6,0,1.2-0.4,1.2-1.7c0-1-0.5-1.6-1.2-1.6c-0.5,0-1.3,0.3-1.3,1.6
					C112.1,44.8,112.5,45.5,113.3,45.5 M113.4,41.8c1.6,0,2,1.3,2,2.2c0,1.2-0.7,2.2-2.1,2.2c-1.4,0-2-0.9-2-2.1
					C111.3,43,111.8,41.8,113.4,41.8"/>
				<polygon id="Fill-54" class="st0" points="115.9,41.9 116.7,41.9 118,45.1 119.3,41.9 120.2,41.9 118.4,46 117.6,46 				"/>
				<path id="Fill-55" class="st0" d="M123,44c-0.3,0-1.5,0-1.5,0.8c0,0.3,0.2,0.7,0.9,0.7c0.4,0,0.7-0.2,0.9-0.4
					c0.2-0.3,0.2-0.5,0.2-1.1C123.3,44,123.2,44,123,44L123,44z M123.5,46c-0.1-0.2-0.1-0.4-0.1-0.6c-0.4,0.7-0.9,0.7-1.3,0.7
					c-0.9,0-1.4-0.5-1.4-1.2c0-0.3,0.1-0.8,0.7-1.2c0.4-0.2,1.1-0.3,1.4-0.3c0.2,0,0.3,0,0.6,0c0-0.5,0-0.7-0.1-0.9
					c-0.2-0.2-0.5-0.3-0.7-0.3c-0.8,0-0.8,0.5-0.8,0.7H121c0-0.2,0-0.5,0.3-0.8c0.3-0.3,0.9-0.4,1.3-0.4c0.6,0,1.2,0.2,1.5,0.6
					c0.1,0.2,0.1,0.4,0.1,0.6l0,2c0,0.1,0,0.6,0.1,1H123.5z"/>
				<path id="Fill-56" class="st0" d="M127.5,42.3c-1.2,0-1.2,1.4-1.2,1.6c0,0.3,0,1.6,1.1,1.6c1,0,1.2-0.9,1.2-1.6
					C128.7,43.5,128.6,42.3,127.5,42.3L127.5,42.3z M126.4,42.5c0.1-0.2,0.4-0.7,1.3-0.7c0.4,0,0.9,0.1,1.3,0.5
					c0.2,0.2,0.5,0.6,0.5,1.5c0,0.8-0.2,1.2-0.4,1.5c-0.3,0.5-0.9,0.7-1.4,0.7c-0.2,0-0.6,0-0.9-0.3c-0.2-0.2-0.3-0.3-0.4-0.4l0,0.6
					h-0.7l0-0.7v-5.2h0.8V42.5z"/>
				<polygon id="Fill-57" class="st0" points="130.6,46 131.4,46 131.4,40.1 130.6,40.1 				"/>
				<path id="Fill-58" class="st0" d="M135.5,43.5c0-0.4-0.1-1.2-1-1.2c-0.5,0-1.1,0.3-1.1,1.2H135.5z M133.3,44.1
					c0,0.8,0.3,1.5,1.2,1.5c0.5,0,0.9-0.3,1-0.9h0.8c0,0.2-0.1,0.5-0.4,0.9c-0.2,0.2-0.6,0.5-1.4,0.5c-1.3,0-1.9-0.8-1.9-2.1
					c0-0.8,0.2-1.5,0.8-1.9c0.4-0.3,0.9-0.3,1.1-0.3c1.8,0,1.8,1.6,1.8,2.3H133.3z"/>
				<path id="Fill-59" class="st0" d="M137.9,44.8c0,0.3,0.2,0.7,0.9,0.7c0.3,0,0.6-0.1,0.7-0.3c0.1-0.1,0.1-0.2,0.1-0.4
					c0-0.4-0.3-0.5-0.9-0.6c-0.9-0.2-1.6-0.4-1.6-1.2c0-0.8,0.7-1.2,1.6-1.2c0.5,0,1.2,0.1,1.5,0.6c0.1,0.2,0.1,0.4,0.1,0.6h-0.8
					c0-0.6-0.5-0.7-0.8-0.7c-0.1,0-0.8,0-0.8,0.6c0,0.4,0.4,0.5,0.6,0.5c1.1,0.3,1.4,0.3,1.6,0.6c0.2,0.2,0.3,0.5,0.3,0.8
					c0,0.5-0.3,0.9-0.6,1c-0.4,0.2-0.8,0.3-1.2,0.3c-0.8,0-1.6-0.3-1.6-1.3H137.9z"/>
			</g>
		</g>
	</g>
</g>
</svg>
