<svg id="Capa_1" data-name="Capa 1" xmlns="http://www.w3.org/2000/svg" viewBox="0 0 49.6 49.6"><defs><style>.cls-1{fill:#fab200;fill-rule:evenodd;}</style></defs><title>energia_cero_logoyellowsvg</title><path id="Fill-1" class="cls-1" d="M110.7,14.3c1.5,0,1.8,1,1.8,2.4V27H109V16.7C108.9,15.3,109.2,14.3,110.7,14.3Z" transform="translate(-71.25 -0.21)"/><path id="Fill-3" class="cls-1" d="M100.5,16c0-1.5-.8-1.7-2-1.7H97.2v9.2h1.5c1.1,0,1.7-.3,1.7-1.8V16Z" transform="translate(-71.25 -0.21)"/><g id="Group-7"><path id="Fill-5" class="cls-1" d="M114.55,33.81l-.4.3.4.3-.4.3.4.3-.4.3.4.3-.4.3h0l-1.1,1.1a7.4,7.4,0,0,1-4.8,0l-1.1-1.1-.4-.3.4-.3-.4-.3.4-.3-.4-.3.4-.3-.4-.3.4-.3-1.6-1.5v-4.9h1.1V16.61c0-2.5.9-4.3,4.1-4.3s4.1,1.8,4.1,4.3V27H116v4.9l-1.6,1.5h0ZM103,37.61h-2.3V27c0-1.2-.7-1.5-1.8-1.5h-1.6v12.1H95V12.31h4.3c2.2,0,3.6.4,3.6,2.9v6.4c0,2-.7,2.6-2.5,2.7v.1c1.6.1,2.6.6,2.6,2.3Zm-10.9-23.3h-3.8v9.2h3.6v2h-3.6v10.2h3.8v2H86V12.31h6.1Zm-8.7,4.6h-2.3v-3.3c0-1.1-.4-1.6-1.3-1.6s-1.3.5-1.3,1.6v18.6c0,1.1.4,1.6,1.3,1.6s1.3-.5,1.3-1.6v-3.5h2.3v3.6a3.6,3.6,0,0,1-7.2,0V15.61a3.6,3.6,0,0,1,7.2,0ZM71.25,25A24.8,24.8,0,1,0,96,.21,24.8,24.8,0,0,0,71.25,25Z" transform="translate(-71.25 -0.21)"/></g></svg>