<?xml version="1.0" encoding="UTF-8"?>
<svg width="213px" height="106px" viewBox="0 0 213 106" version="1.1" xmlns="http://www.w3.org/2000/svg" xmlns:xlink="http://www.w3.org/1999/xlink">
    <!-- Generator: Sketch 43.1 (39012) - http://www.bohemiancoding.com/sketch -->
    <title>Group 41</title>
    <desc>Created with Sketch.</desc>
    <defs></defs>
    <g id="ENERGÃA-CERO-WEB" stroke="none" stroke-width="1" fill="none" fill-rule="evenodd">
        <g id="1.HOME-" transform="translate(-375.000000, -2512.000000)">
            <g id="Group-47" transform="translate(375.000000, 1996.000000)">
                <g id="Group-46" transform="translate(0.000000, 204.000000)">
                    <g id="Group-21" transform="translate(0.000000, 300.666667)">
                        <g id="Group-41" transform="translate(0.000000, 13.000000)">
                            <g id="Group-19-Copy-3" transform="translate(0.000000, 43.000000)">
                                <path d="M6.5,18.2 C4.4666565,18.2 2.92083863,17.4291744 1.8625,15.8875 C0.804161375,14.3458256 0.275,12.0833483 0.275,9.1 C0.275,6.11665175 0.804161375,3.85417437 1.8625,2.3125 C2.92083863,0.770825625 4.4666565,0 6.5,0 C8.5333435,0 10.0791614,0.770825625 11.1375,2.3125 C12.1958386,3.85417437 12.725,6.1083185 12.725,9.075 C12.725,12.0583483 12.1958386,14.3249923 11.1375,15.875 C10.0791614,17.4250077 8.5333435,18.2 6.5,18.2 Z M6.5,16.475 C7.91667375,16.475 8.96249663,15.875006 9.6375,14.675 C10.3125034,13.474994 10.65,11.608346 10.65,9.075 C10.65,6.55832075 10.31667,4.70833925 9.65,3.525 C8.98333,2.34166075 7.9333405,1.75 6.5,1.75 C5.08332625,1.75 4.03750338,2.34166075 3.3625,3.525 C2.68749663,4.70833925 2.35,6.55832075 2.35,9.075 C2.35,11.5916792 2.68749663,13.4541606 3.3625,14.6625 C4.03750338,15.8708394 5.08332625,16.475 6.5,16.475 Z M23.95,8.85 C25.0000053,9.1500015 25.7999973,9.666663 26.35,10.4 C26.9000028,11.133337 27.175,12.0583278 27.175,13.175 C27.175,14.7250077 26.6500053,15.9458289 25.6,16.8375 C24.5499948,17.7291711 23.125009,18.175 21.325,18.175 C20.1749943,18.175 19.0708386,17.9833352 18.0125,17.6 C16.9541614,17.2166647 16.058337,16.6750035 15.325,15.975 L16.125,14.4 C17.7750083,15.7666735 19.4916578,16.45 21.275,16.45 C22.541673,16.45 23.5041634,16.1666695 24.1625,15.6 C24.8208366,15.0333305 25.15,14.2000055 25.15,13.1 C25.15,10.9166557 23.783347,9.825 21.05,9.825 L19,9.825 L19,8.1 L20.65,8.1 C21.9666733,8.1 22.9749965,7.80833625 23.675,7.225 C24.3750035,6.64166375 24.725,5.80833875 24.725,4.725 C24.725,3.7583285 24.4375029,3.01666925 23.8625,2.5 C23.2874971,1.98333075 22.4750053,1.725 21.425,1.725 C19.7249915,1.725 18.041675,2.4083265 16.375,3.775 L15.6,2.2 C16.3166703,1.51666325 17.1958281,0.979168625 18.2375,0.5875 C19.2791719,0.195831375 20.366661,0 21.5,0 C23.100008,0 24.3791619,0.40832925 25.3375,1.225 C26.2958381,2.04167075 26.775,3.14165975 26.775,4.525 C26.775,5.54167175 26.5250025,6.4333295 26.025,7.2 C25.5249975,7.9666705 24.8333378,8.516665 23.95,8.85 Z" id="03" fill="#618E4A"></path>
                                <path d="M44.5,9 L63.5,9" id="Line" stroke="#618E4A" stroke-width="2" stroke-linecap="square"></path>
                            </g>
                            <g id="Group-20" transform="translate(109.000000, 0.000000)">
                                <circle id="Oval-Copy-2" stroke="#C6D978" stroke-width="2" cx="51.5" cy="51.5" r="51.5"></circle>
                                <path d="M54.48,63.002 C54.4746667,63.002 54.4693333,63.0013333 54.464,63.0013333 L48.872,63.0013333 C48.8666667,63.0013333 48.8613333,63.002 48.856,63.002 L15.788,63.002 L15.788,60.198 L22.428,60.198 C23.198,60.198 23.822,59.574 23.822,58.8046667 C23.822,58.0346667 23.198,57.4106667 22.428,57.4106667 L16.112,57.4106667 L18.0093333,48.3946667 L38.576,48.3946667 L37.9433333,57.4106667 L28.456,57.4106667 L28.456,57.4106667 C27.686,57.4106667 27.062,58.0346667 27.062,58.8046667 C27.062,59.574 27.686,60.198 28.456,60.198 L28.456,60.198 L39.242,60.198 L39.2446667,60.198 L39.246,60.198 L64.0893333,60.198 L64.0913333,60.198 L64.0933333,60.198 L87.5473333,60.198 L87.5473333,63.002 L54.48,63.002 Z M50.266,73.6213333 L53.07,73.6213333 L53.07,65.79 L50.266,65.79 L50.266,73.6213333 Z M65.184,76.4086667 L65.184,79.2126667 L38.152,79.2126667 L38.152,76.4086667 L48.872,76.4086667 L54.464,76.4086667 L65.184,76.4086667 Z M20.4946667,36.5913333 L39.4046667,36.5913333 L38.772,45.6073333 L18.5966667,45.6073333 L20.4946667,36.5913333 Z M22.9793333,24.788 L40.2326667,24.788 L39.6,33.804 L21.0813333,33.804 L22.9793333,24.788 Z M41.3713333,48.3946667 L61.9653333,48.3946667 L62.5973333,57.4106667 L40.7386667,57.4106667 L41.3713333,48.3946667 Z M42.1993333,36.5913333 L61.136,36.5913333 L61.7693333,45.6073333 L41.5666667,45.6073333 L42.1993333,36.5913333 Z M43.0273333,24.788 L60.308,24.788 L60.9406667,33.804 L42.3946667,33.804 L43.0273333,24.788 Z M80.356,24.788 L82.2546667,33.804 L63.7353333,33.804 L63.1026667,24.788 L80.356,24.788 Z M82.8413333,36.5913333 L84.7393333,45.6073333 L64.564,45.6073333 L63.9306667,36.5913333 L82.8413333,36.5913333 Z M87.224,57.4106667 L65.3926667,57.4106667 L64.7593333,48.3946667 L85.326,48.3946667 L87.224,57.4106667 Z M90.3326667,58.738 C90.3313333,58.714 90.3313333,58.6893333 90.3286667,58.6653333 C90.324,58.616 90.3166667,58.568 90.3066667,58.5206667 C90.3066667,58.5193333 90.3066667,58.5186667 90.306,58.5173333 L87.8233333,46.7253333 C87.8226667,46.7213333 87.8213333,46.7173333 87.8206667,46.7126667 L85.3386667,34.922 C85.338,34.918 85.3366667,34.914 85.336,34.9093333 L82.8513333,23.1066667 C82.716,22.4613333 82.1466667,22 81.4873333,22 L21.848,22 C21.1886667,22 20.62,22.4613333 20.484,23.1066667 L18,34.908 C17.9986667,34.9133333 17.9973333,34.918 17.9966667,34.9226667 L15.5146667,46.714 C15.514,46.7173333 15.5133333,46.7213333 15.5126667,46.724 L13.03,58.516 C13.02,58.566 13.012,58.6166667 13.0073333,58.6686667 C13.006,58.68 13.006,58.6926667 13.0053333,58.704 C13.0026667,58.7373333 13,58.77 13,58.804 L13,64.396 C13,65.166 13.624,65.79 14.394,65.79 L47.478,65.79 L47.478,73.6206667 L36.758,73.6206667 C35.9873333,73.6206667 35.364,74.2446667 35.364,75.0146667 L35.364,79.212 L21.848,79.212 C21.078,79.212 20.454,79.8366667 20.454,80.606 C20.454,81.376 21.078,82 21.848,82 L36.758,82 L66.5773333,82 L81.4846667,82 C82.2553333,82 82.8786667,81.376 82.8786667,80.606 C82.8786667,79.8366667 82.2546667,79.212 81.4846667,79.212 L67.9713333,79.212 L67.9713333,75.0146667 C67.9713333,74.2446667 67.3473333,73.6206667 66.5773333,73.6206667 L55.8573333,73.6206667 L55.8573333,65.79 L88.9413333,65.79 C89.7113333,65.79 90.3353333,65.1653333 90.3353333,64.396 L90.3353333,58.8293333 L90.3353333,58.8226667 L90.3353333,58.8046667 C90.336,58.782 90.3333333,58.7606667 90.3326667,58.738 L90.3326667,58.738 Z" id="Fill-1" fill="#606060"></path>
                            </g>
                        </g>
                    </g>
                </g>
            </g>
        </g>
    </g>
</svg>