<?xml version="1.0" encoding="UTF-8"?>
<svg width="213px" height="105px" viewBox="0 0 213 105" version="1.1" xmlns="http://www.w3.org/2000/svg" xmlns:xlink="http://www.w3.org/1999/xlink">
    <!-- Generator: Sketch 43.1 (39012) - http://www.bohemiancoding.com/sketch -->
    <title>Group 52</title>
    <desc>Created with Sketch.</desc>
    <defs></defs>
    <g id="ENERGÃA-CERO-WEB" stroke="none" stroke-width="1" fill="none" fill-rule="evenodd">
        <g id="1.HOME-" transform="translate(-375.000000, -2676.000000)">
            <g id="Group-47" transform="translate(375.000000, 1996.000000)">
                <g id="Group-46" transform="translate(0.000000, 204.000000)">
                    <g id="Group-8" transform="translate(0.000000, 477.000000)">
                        <g id="Group-51">
                            <g id="Group-52">
                                <g id="Group-19-Copy-4" transform="translate(0.000000, 43.000000)">
                                    <path d="M6.5,18.2 C4.4666565,18.2 2.92083863,17.4291744 1.8625,15.8875 C0.804161375,14.3458256 0.275,12.0833483 0.275,9.1 C0.275,6.11665175 0.804161375,3.85417437 1.8625,2.3125 C2.92083863,0.770825625 4.4666565,0 6.5,0 C8.5333435,0 10.0791614,0.770825625 11.1375,2.3125 C12.1958386,3.85417437 12.725,6.1083185 12.725,9.075 C12.725,12.0583483 12.1958386,14.3249923 11.1375,15.875 C10.0791614,17.4250077 8.5333435,18.2 6.5,18.2 Z M6.5,16.475 C7.91667375,16.475 8.96249663,15.875006 9.6375,14.675 C10.3125034,13.474994 10.65,11.608346 10.65,9.075 C10.65,6.55832075 10.31667,4.70833925 9.65,3.525 C8.98333,2.34166075 7.9333405,1.75 6.5,1.75 C5.08332625,1.75 4.03750338,2.34166075 3.3625,3.525 C2.68749663,4.70833925 2.35,6.55832075 2.35,9.075 C2.35,11.5916792 2.68749663,13.4541606 3.3625,14.6625 C4.03750338,15.8708394 5.08332625,16.475 6.5,16.475 Z M28.175,12.425 L28.175,14.125 L25.475,14.125 L25.475,18 L23.425,18 L23.425,14.125 L15.225,14.125 L15.225,12.575 L23.8,0.2 L25.475,0.2 L25.475,12.425 L28.175,12.425 Z M17.35,12.425 L23.425,12.425 L23.425,3.675 L17.35,12.425 Z" id="04" fill="#618E4A"></path>
                                    <path d="M44.5,9 L63.5,9" id="Line" stroke="#618E4A" stroke-width="2" stroke-linecap="square"></path>
                                </g>
                                <g id="Group-45" transform="translate(109.000000, 0.000000)">
                                    <circle id="Oval-Copy-2" stroke="#C6D978" stroke-width="2" cx="51.5" cy="51.5" r="51.5"></circle>
                                    <g id="Page-1" transform="translate(22.000000, 22.000000)" fill="#606060">
                                        <path d="M53.5057333,26.2972667 C48.0450667,31.7579333 39.1590667,31.7579333 33.6984,26.2972667 C31.0530667,23.6519333 29.5964,20.1346 29.5964,16.3939333 C29.5964,12.6526 31.0530667,9.13526667 33.6984,6.48993333 C36.3810667,3.80726667 39.9937333,2.40126667 43.6370667,2.40126667 C45.3977333,2.40126667 47.1657333,2.72993333 48.8390667,3.40126667 L38.6090667,13.6312667 C38.1424,14.0979333 38.1424,14.8546 38.6090667,15.3219333 L44.6744,21.3866 C44.8984,21.6106 45.2024,21.7366 45.5197333,21.7366 C45.8364,21.7366 46.1404,21.6106 46.3644,21.3866 L56.5944,11.1566 C58.6564,16.2919333 57.4857333,22.3179333 53.5057333,26.2972667 L53.5057333,26.2972667 Z M13.3210667,55.7332667 C12.1110667,56.9432667 10.5024,57.6092667 8.79173333,57.6092667 C7.0804,57.6092667 5.4724,56.9432667 4.2624,55.7332667 C1.76506667,53.2359333 1.76506667,49.1726 4.2624,46.6746 L28.3944,22.5432667 C28.7250667,23.3606 29.1224,24.1512667 29.5837333,24.9079333 L6.42573333,48.0659333 C4.9084,49.5832667 4.9084,52.0526 6.42573333,53.5706 C7.18506667,54.3292667 8.18106667,54.7086 9.17773333,54.7086 C10.1744,54.7086 11.1710667,54.3292667 11.9304,53.5706 L27.0590667,38.4412667 C27.5257333,37.9752667 27.5257333,37.2179333 27.0590667,36.7512667 C26.5924,36.2846 25.8350667,36.2846 25.3684,36.7512667 L10.2397333,51.8799333 C9.6544,52.4659333 8.70173333,52.4652667 8.11573333,51.8799333 C7.5304,51.2946 7.5304,50.3419333 8.11573333,49.7559333 L30.9944,26.8772667 C31.3144,27.2599333 31.6517333,27.6306 32.0084,27.9879333 C33.6144,29.5939333 35.4737333,30.7966 37.4590667,31.5952667 L13.3210667,55.7332667 Z M57.9977333,8.5386 C57.8177333,8.2086 57.4917333,7.98193333 57.1190667,7.9286 C56.7470667,7.87526667 56.3704,7.99993333 56.1037333,8.2666 L45.5197333,18.8512667 L41.1444,14.4766 L51.7290667,3.89193333 C51.9950667,3.62526667 52.1204,3.24926667 52.0670667,2.8766 C52.0137333,2.50393333 51.7870667,2.17793333 51.4570667,1.99726667 C48.4110667,0.3346 44.8310667,-0.322066667 41.3757333,0.1486 C37.8024,0.635266667 34.5644,2.24393333 32.0084,4.79926667 C28.9110667,7.89593333 27.2057333,12.0139333 27.2057333,16.3939333 C27.2057333,17.6086 27.3377333,18.8039333 27.5937333,19.9626 L2.5724,44.9846 C-0.8576,48.4139333 -0.8576,53.9939333 2.5724,57.4232667 C4.23373333,59.0852667 6.44173333,59.9999333 8.79173333,59.9999333 C11.1410667,59.9999333 13.3504,59.0852667 15.0117333,57.4239333 L40.0417333,32.3939333 C41.2137333,32.6526 42.4084,32.7826 43.6030667,32.7826 C47.8010667,32.7826 51.9997333,31.1839333 55.1964,27.9879333 C57.7524,25.4319333 59.3604,22.1926 59.8477333,18.6206 C60.3184,15.1646 59.6610667,11.5846 57.9977333,8.5386 L57.9977333,8.5386 Z" id="Fill-1"></path>
                                    </g>
                                </g>
                            </g>
                        </g>
                    </g>
                </g>
            </g>
        </g>
    </g>
</svg>