<?xml version="1.0" encoding="UTF-8"?>
<svg width="213px" height="106px" viewBox="0 0 213 106" version="1.1" xmlns="http://www.w3.org/2000/svg" xmlns:xlink="http://www.w3.org/1999/xlink">
    <!-- Generator: Sketch 43.1 (39012) - http://www.bohemiancoding.com/sketch -->
    <title>Group 38</title>
    <desc>Created with Sketch.</desc>
    <defs></defs>
    <g id="ENERGÃA-CERO-WEB" stroke="none" stroke-width="1" fill="none" fill-rule="evenodd">
        <g id="1.HOME-" transform="translate(-375.000000, -2349.000000)">
            <g id="Group-47" transform="translate(375.000000, 1996.000000)">
                <g id="Group-46" transform="translate(0.000000, 204.000000)">
                    <g id="Group-22" transform="translate(0.000000, 150.333333)">
                        <g id="Group-38">
                            <g id="Group-19-Copy" transform="translate(0.000000, 43.000000)">
                                <path d="M6.5,18.2 C4.4666565,18.2 2.92083863,17.4291744 1.8625,15.8875 C0.804161375,14.3458256 0.275,12.0833483 0.275,9.1 C0.275,6.11665175 0.804161375,3.85417437 1.8625,2.3125 C2.92083863,0.770825625 4.4666565,0 6.5,0 C8.5333435,0 10.0791614,0.770825625 11.1375,2.3125 C12.1958386,3.85417437 12.725,6.1083185 12.725,9.075 C12.725,12.0583483 12.1958386,14.3249923 11.1375,15.875 C10.0791614,17.4250077 8.5333435,18.2 6.5,18.2 Z M6.5,16.475 C7.91667375,16.475 8.96249663,15.875006 9.6375,14.675 C10.3125034,13.474994 10.65,11.608346 10.65,9.075 C10.65,6.55832075 10.31667,4.70833925 9.65,3.525 C8.98333,2.34166075 7.9333405,1.75 6.5,1.75 C5.08332625,1.75 4.03750338,2.34166075 3.3625,3.525 C2.68749663,4.70833925 2.35,6.55832075 2.35,9.075 C2.35,11.5916792 2.68749663,13.4541606 3.3625,14.6625 C4.03750338,15.8708394 5.08332625,16.475 6.5,16.475 Z M27.525,16.275 L27.525,18 L16.075,18 L16.075,16.45 L22.3,9.55 C23.1333375,8.616662 23.7416648,7.77500375 24.125,7.025 C24.5083353,6.27499625 24.7,5.52500375 24.7,4.775 C24.7,3.79166175 24.4166695,3.03750262 23.85,2.5125 C23.2833305,1.98749738 22.4750053,1.725 21.425,1.725 C19.7249915,1.725 18.041675,2.4083265 16.375,3.775 L15.6,2.2 C16.3000035,1.53333 17.183328,1.000002 18.25,0.6 C19.316672,0.199998 20.3916613,0 21.475,0 C23.1083415,0 24.3999953,0.420829125 25.35,1.2625 C26.3000048,2.10417088 26.775,3.2416595 26.775,4.675 C26.775,5.69167175 26.5458356,6.67082862 26.0875,7.6125 C25.6291644,8.55417137 24.866672,9.6083275 23.8,10.775 L18.725,16.275 L27.525,16.275 Z" id="02" fill="#618E4A"></path>
                                <path d="M44.5,9 L63.5,9" id="Line" stroke="#618E4A" stroke-width="2" stroke-linecap="square"></path>
                            </g>
                            <g id="Group-11" transform="translate(109.000000, 0.000000)">
                                <circle id="Oval-Copy-2" stroke="#C6D978" stroke-width="2" cx="51.5" cy="51.5" r="51.5"></circle>
                                <g id="Page-1-Copy-2" transform="translate(25.000000, 22.000000)" fill="#606060">
                                    <path d="M58.0940667,43.4820667 C58.0940667,43.6647333 57.9447333,43.8147333 57.7620667,43.8147333 L56.8507333,43.8147333 C56.4327333,43.8147333 56.0674,44.0940667 55.9587333,44.4974 C55.7474,45.2814 55.4347333,46.0367333 55.0287333,46.7420667 C54.8207333,47.1040667 54.8814,47.5607333 55.1767333,47.8554 L55.8200667,48.4994 C55.8847333,48.5634 55.9180667,48.6447333 55.9180667,48.7347333 C55.9180667,48.8254 55.8847333,48.9067333 55.8207333,48.9700667 L53.7640667,51.0260667 C53.6500667,51.1414 53.4080667,51.1407333 53.2940667,51.0267333 L52.6494,50.3827333 C52.3547333,50.0867333 51.8967333,50.0260667 51.5360667,50.2347333 C50.8320667,50.6400667 50.0774,50.9527333 49.2914,51.1647333 C48.8887333,51.2734 48.6080667,51.6387333 48.6080667,52.0560667 L48.6080667,52.9680667 C48.6080667,53.1507333 48.4594,53.3000667 48.2760667,53.3000667 L45.4527333,53.3000667 L45.4527333,52.1000667 C45.4527333,50.8620667 45.2600667,49.6394 44.8934,48.4660667 C45.5154,48.6520667 46.1587333,48.7574 46.8220667,48.7574 C50.5327333,48.7574 53.5514,45.7387333 53.5514,42.0280667 C53.5514,40.7667333 53.2000667,39.5367333 52.5354,38.4714 C52.3554,38.1834 51.9754,38.0947333 51.6874,38.2747333 C51.3987333,38.4547333 51.3107333,38.8347333 51.4907333,39.1234 C52.0334,39.9927333 52.3200667,40.9974 52.3200667,42.0280667 C52.3200667,45.0594 49.8534,47.5254 46.8220667,47.5254 C45.9654,47.5254 45.1440667,47.3340667 44.3814,46.9554 C44.3567333,46.9434 44.3307333,46.9440667 44.3054,46.9354 C44.0627333,46.4127333 43.7834,45.9034 43.4667333,45.4127333 C42.8814,44.5074 42.1887333,43.6934 41.4120667,42.9820667 C41.3574,42.6694 41.3247333,42.3514 41.3247333,42.0280667 C41.3247333,38.9967333 43.7907333,36.5300667 46.8220667,36.5300667 C47.7514,36.5300667 48.6707333,36.7667333 49.4787333,37.2140667 C49.7767333,37.3787333 50.1514,37.2707333 50.3154,36.9727333 C50.4800667,36.6754 50.3720667,36.3007333 50.0747333,36.1360667 C49.0840667,35.5887333 47.9594,35.2994 46.8220667,35.2994 C43.1427333,35.2994 40.1480667,38.2680667 40.0980667,41.9354 C39.6240667,41.6094 39.1294,41.3160667 38.6134,41.0614 C38.4480667,40.9074 38.2347333,40.8047333 37.9987333,40.7780667 C37.4674,40.5527333 36.9220667,40.3834 36.3714,40.2414 L36.7940667,40.2414 C37.2114,40.2414 37.5774,39.9607333 37.6860667,39.5574 C37.8967333,38.7734 38.2094,38.0187333 38.6147333,37.3147333 C38.8227333,36.9527333 38.7627333,36.4960667 38.4674,36.2007333 L37.8240667,35.5567333 C37.7600667,35.4927333 37.7260667,35.4114 37.7260667,35.3214 C37.7260667,35.2314 37.7600667,35.1494 37.8234,35.0860667 L39.8794,33.0294 C39.9860667,32.9227333 40.2427333,32.9207333 40.3500667,33.0294 L40.9940667,33.6740667 C41.2887333,33.9687333 41.7467333,34.0287333 42.1080667,33.8207333 C42.8120667,33.4160667 43.5667333,33.1034 44.3527333,32.8914 C44.7554,32.7827333 45.0354,32.4174 45.0354,32.0000667 L45.0354,31.0887333 C45.0354,30.9054 45.1847333,30.7560667 45.3674,30.7560667 L48.2760667,30.7560667 C48.4594,30.7560667 48.6080667,30.9054 48.6080667,31.0887333 L48.6080667,32.0000667 C48.6080667,32.4174 48.8887333,32.7827333 49.2914,32.8914 C50.0767333,33.1034 50.8314,33.4154 51.5360667,33.8207333 C51.8980667,34.0280667 52.3547333,33.9680667 52.6494,33.6734 L53.2934,33.0294 C53.4080667,32.9147333 53.6500667,32.9154 53.7640667,33.0294 L55.8194,35.0840667 C55.8847333,35.1494 55.9174,35.2294 55.9174,35.3207333 C55.9174,35.4114 55.8840667,35.4927333 55.8200667,35.5560667 L55.1767333,36.2000667 C54.8814,36.4954 54.8207333,36.9520667 55.0287333,37.3140667 C55.4340667,38.0167333 55.7467333,38.7720667 55.9587333,39.5580667 C56.0667333,39.9607333 56.4327333,40.2414 56.8500667,40.2414 L57.7614,40.2414 C57.9447333,40.2414 58.0940667,40.3907333 58.0940667,40.5734 L58.0940667,43.4820667 Z M43.2887333,57.8354 L38.9594,57.8354 L38.9594,43.7800667 C41.6020667,45.6527333 43.2887333,48.8080667 43.2887333,52.1000667 L43.2887333,57.8354 Z M36.7954,57.8354 L34.6307333,57.8354 L34.6307333,55.3460667 C34.6307333,54.7487333 34.1460667,54.2640667 33.5487333,54.2640667 C32.9507333,54.2640667 32.4667333,54.7487333 32.4667333,55.3460667 L32.4667333,57.8354 L23.8087333,57.8354 L23.8087333,48.2040667 L29.6834,42.0354 L32.4667333,42.0354 L32.4667333,48.8534 C32.4667333,49.4507333 32.9507333,49.9354 33.5487333,49.9354 C34.1460667,49.9354 34.6307333,49.4507333 34.6307333,48.8534 L34.6307333,42.0994 C35.3694,42.1860667 36.0927333,42.3627333 36.7954,42.6280667 L36.7954,57.8354 Z M17.3154,40.5200667 L17.3154,38.5047333 C18.9854,39.4020667 20.8247333,39.8707333 22.7267333,39.8707333 C24.6280667,39.8707333 26.4680667,39.4020667 28.1374,38.5047333 L28.1374,40.5200667 L22.7267333,46.2020667 L17.3154,40.5200667 Z M21.6440667,57.8354 L12.9867333,57.8354 L12.9867333,55.3460667 C12.9867333,54.7487333 12.5020667,54.2640667 11.9040667,54.2640667 C11.3067333,54.2640667 10.8220667,54.7487333 10.8220667,55.3460667 L10.8220667,57.8354 L8.6574,57.8354 L8.6574,42.6274 C9.36006667,42.3627333 10.0834,42.1860667 10.8220667,42.0994 L10.8220667,48.8534 C10.8220667,49.4507333 11.3067333,49.9354 11.9040667,49.9354 C12.5020667,49.9354 12.9867333,49.4507333 12.9867333,48.8534 L12.9867333,42.0354 L15.7694,42.0354 L21.6440667,48.2040667 L21.6440667,57.8354 Z M13.1834,29.6094 C13.1807333,29.5980667 13.1787333,29.5860667 13.1767333,29.5747333 C13.0507333,28.9394 12.9867333,28.2894 12.9867333,27.6420667 L12.9867333,24.3954 L32.4667333,24.3954 L32.4667333,27.6420667 C32.4667333,28.2887333 32.4020667,28.9387333 32.2767333,29.5740667 C32.2740667,29.5860667 32.2720667,29.5974 32.2700667,29.6094 C31.7860667,32.0234 30.4474,34.1847333 28.4987333,35.6960667 C26.8054,37.0107333 24.8094,37.7060667 22.7267333,37.7060667 C20.6434,37.7060667 18.6480667,37.0107333 16.9527333,35.6947333 C16.5647333,35.3947333 16.1954,35.0627333 15.8547333,34.7067333 C14.4894,33.2847333 13.5660667,31.5227333 13.1834,29.6094 L13.1834,29.6094 Z M10.8220667,22.2307333 L9.74006667,22.2307333 C9.1434,22.2307333 8.6574,21.7454 8.6574,21.1487333 C8.6574,20.8594 8.77073333,20.5880667 8.97473333,20.3840667 C9.1794,20.1787333 9.4514,20.0660667 9.74006667,20.0660667 L35.7127333,20.0660667 C36.3100667,20.0660667 36.7954,20.5514 36.7954,21.1487333 C36.7954,21.4374 36.6827333,21.7087333 36.4780667,21.9134 C36.2734,22.1180667 36.0014,22.2307333 35.7127333,22.2307333 L34.6307333,22.2307333 L33.5487333,22.2307333 L11.9040667,22.2307333 L10.8220667,22.2307333 Z M10.8220667,28.7240667 C9.62873333,28.7240667 8.6574,27.7527333 8.6574,26.5594 C8.6574,25.3660667 9.62873333,24.3954 10.8220667,24.3954 L10.8220667,27.6420667 C10.8220667,28.0027333 10.8394,28.3640667 10.8714,28.7240667 L10.8220667,28.7240667 Z M17.3154,9.80073333 L17.3154,14.6554 C17.3154,15.2527333 17.8000667,15.7374 18.3980667,15.7374 C18.9954,15.7374 19.4800667,15.2527333 19.4800667,14.6554 L19.4800667,8.38473333 L19.4800667,8.37673333 L19.4800667,8.16206667 C19.4800667,7.4914 20.0460667,6.7554 20.5620667,6.7554 L24.8907333,6.7554 C25.4067333,6.7554 25.9727333,7.4914 25.9727333,8.16206667 L25.9727333,8.37673333 L25.9727333,8.38473333 L25.9727333,14.6554 C25.9727333,15.2527333 26.4574,15.7374 27.0554,15.7374 C27.6527333,15.7374 28.1374,15.2527333 28.1374,14.6554 L28.1374,9.80073333 C31.6320667,11.0374 34.1547333,14.1994 34.5700667,17.9020667 L10.8827333,17.9020667 C11.2980667,14.1994 13.8207333,11.0374 17.3154,9.80073333 L17.3154,9.80073333 Z M34.6307333,28.7240667 L34.5814,28.7240667 C34.6134,28.3640667 34.6307333,28.0027333 34.6307333,27.6420667 L34.6307333,24.3954 C35.8240667,24.3954 36.7954,25.3660667 36.7954,26.5594 C36.7954,27.7527333 35.8240667,28.7240667 34.6307333,28.7240667 L34.6307333,28.7240667 Z M6.4934,57.8354 L2.16406667,57.8354 L2.16406667,52.1000667 C2.16406667,48.8080667 3.85073333,45.6527333 6.4934,43.7800667 L6.4934,57.8354 Z M57.7614,38.3940667 L57.5347333,38.3940667 C57.3754,37.9247333 57.1854,37.4660667 56.9660667,37.0220667 L57.1260667,36.8620667 C57.5380667,36.4507333 57.7640667,35.9034 57.7640667,35.3207333 C57.7640667,34.7394 57.5380667,34.1920667 57.1260667,33.7794 L55.0700667,31.7227333 C54.2340667,30.8880667 52.8234,30.8880667 51.9874,31.7234 L51.8267333,31.8834 C51.3827333,31.6640667 50.9247333,31.4747333 50.4554,31.3154 L50.4554,31.0887333 C50.4554,29.8867333 49.4780667,28.9094 48.2760667,28.9094 L45.3674,28.9094 C44.1660667,28.9094 43.1887333,29.8867333 43.1887333,31.0887333 L43.1887333,31.3154 C42.7187333,31.4747333 42.2607333,31.6647333 41.8167333,31.8840667 L41.6567333,31.7240667 C41.2587333,31.3254 40.6967333,31.0967333 40.1154,31.0967333 L40.1147333,31.0967333 C39.5334,31.0967333 38.9714,31.3254 38.5734,31.7234 L36.5174,33.7800667 C36.1060667,34.1914 35.8787333,34.7387333 35.8787333,35.3214 C35.8787333,35.9027333 36.1060667,36.4500667 36.5174,36.8620667 L36.6774,37.0227333 C36.4580667,37.4667333 36.2680667,37.9247333 36.1094,38.3940667 L35.8827333,38.3940667 C34.9234,38.3940667 34.1154,39.0220667 33.8254,39.8847333 C33.7327333,39.8827333 33.6414,39.8707333 33.5487333,39.8707333 L30.3020667,39.8707333 L30.3020667,37.0154 C32.1807333,35.4034 33.5314,33.2680667 34.1867333,30.8880667 L34.6307333,30.8880667 C37.0174,30.8880667 38.9594,28.9467333 38.9594,26.5594 C38.9594,25.4280667 38.5234,24.3980667 37.8100667,23.6254 C37.8780667,23.5680667 37.9447333,23.5080667 38.0087333,23.4440667 C38.6220667,22.8307333 38.9594,22.0154 38.9594,21.1487333 C38.9594,19.7240667 38.0374,18.5114 36.7580667,18.0754 C36.3754,13.0987333 32.8834,8.84606667 28.0740667,7.5134 C27.7894,6.0254 26.5614,4.59073333 24.8907333,4.59073333 L20.5620667,4.59073333 C18.8914,4.59073333 17.6634,6.0254 17.3787333,7.5134 C12.5700667,8.84606667 9.07806667,13.0980667 8.69473333,18.0740667 C8.2294,18.2320667 7.80206667,18.4954 7.44406667,18.8534 C6.83073333,19.4667333 6.4934,20.2814 6.4934,21.1487333 C6.4934,22.1400667 6.94073333,23.0287333 7.6434,23.6247333 C6.93006667,24.3967333 6.4934,25.4280667 6.4934,26.5594 C6.4934,28.9467333 8.4354,30.8880667 10.8220667,30.8880667 L11.2634,30.8880667 C11.8100667,32.8747333 12.8467333,34.6987333 14.2927333,36.2054 C14.5647333,36.4887333 14.8527333,36.7587333 15.1507333,37.0147333 L15.1507333,39.8707333 L11.9040667,39.8707333 C10.3680667,39.8707333 8.87273333,40.1767333 7.45473333,40.7780667 C7.21806667,40.8047333 7.0054,40.9074 6.84006667,41.0614 C4.87873333,42.0287333 3.20473333,43.5267333 1.98606667,45.4127333 C0.686733333,47.4240667 6.66666667e-05,49.7367333 6.66666667e-05,52.1000667 L6.66666667e-05,58.9174 C6.66666667e-05,59.5154 0.484066667,60.0000667 1.08206667,60.0000667 L44.3707333,60.0000667 C44.9687333,60.0000667 45.4527333,59.5154 45.4527333,58.9174 L45.4527333,55.1467333 L48.2760667,55.1467333 C49.4780667,55.1467333 50.4554,54.1694 50.4554,52.9680667 L50.4554,52.7407333 C50.9254,52.5807333 51.3834,52.3914 51.8274,52.1720667 L51.9874,52.3327333 C52.8227333,53.1674 54.2340667,53.1687333 55.0700667,52.3327333 L57.1267333,50.2760667 C57.5387333,49.8647333 57.7647333,49.3167333 57.7647333,48.7347333 C57.7647333,48.1527333 57.5387333,47.6060667 57.1267333,47.1934 L56.9660667,47.0327333 C57.1854,46.5887333 57.3754,46.1300667 57.5347333,45.6614 L57.7620667,45.6614 C58.9634,45.6614 59.9414,44.6834 59.9414,43.4820667 L59.9414,40.5727333 C59.9400667,39.3714 58.9620667,38.3940667 57.7614,38.3940667 L57.7614,38.3940667 Z" id="Fill-1"></path>
                                    <path d="M49.7458,6.85646667 L49.7458,6.23313333 C49.7458,5.8898 50.0251333,5.60913333 50.3691333,5.60913333 C50.7131333,5.60913333 50.9924667,5.8898 50.9924667,6.23313333 C50.9924667,6.57646667 50.7131333,6.85646667 50.3691333,6.85646667 L49.7458,6.85646667 Z M41.7184667,6.48446667 C42.1358,3.7778 44.4224667,1.5918 47.1551333,1.28646667 C48.9564667,1.08513333 50.6904667,1.6338 52.0298,2.83113333 C53.3518,4.0138 54.1098,5.7078 54.1098,7.4798 C54.1098,9.47446667 53.1871333,11.3004667 51.5771333,12.4898 C51.3584667,12.6511333 51.1731333,12.8611333 51.0031333,13.0918 C50.9991333,13.0918 50.9958,13.0904667 50.9924667,13.0904667 L49.7458,13.0904667 L49.7458,8.10313333 L50.3691333,8.10313333 C51.3998,8.10313333 52.2391333,7.26446667 52.2391333,6.23313333 C52.2391333,5.2018 51.3998,4.36246667 50.3691333,4.36246667 C49.3384667,4.36246667 48.4984667,5.2018 48.4984667,6.23313333 L48.4984667,6.85646667 L47.2518,6.85646667 L47.2518,6.23313333 C47.2518,5.2018 46.4124667,4.36246667 45.3818,4.36246667 C44.3504667,4.36246667 43.5111333,5.2018 43.5111333,6.23313333 C43.5111333,7.26446667 44.3504667,8.10313333 45.3818,8.10313333 L46.0051333,8.10313333 L46.0051333,13.0904667 L44.7584667,13.0904667 C44.7531333,13.0904667 44.7471333,13.0924667 44.7418,13.0924667 C44.5671333,12.8564667 44.3771333,12.6418 44.1504667,12.4731333 C42.2931333,11.0871333 41.3611333,8.79246667 41.7184667,6.48446667 L41.7184667,6.48446667 Z M47.2518,13.0904667 L48.4984667,13.0904667 L48.4984667,8.10313333 L47.2518,8.10313333 L47.2518,13.0904667 Z M46.0051333,6.85646667 L45.3818,6.85646667 C45.0378,6.85646667 44.7584667,6.57646667 44.7584667,6.23313333 C44.7584667,5.8898 45.0378,5.60913333 45.3818,5.60913333 C45.7258,5.60913333 46.0051333,5.8898 46.0051333,6.23313333 L46.0051333,6.85646667 Z M50.9924667,15.5844667 L44.7584667,15.5844667 C44.4144667,15.5844667 44.1344667,15.3044667 44.1344667,14.9611333 C44.1344667,14.6178 44.4144667,14.3371333 44.7584667,14.3371333 L50.9924667,14.3371333 C51.3364667,14.3371333 51.6158,14.6178 51.6158,14.9611333 C51.6158,15.3044667 51.3364667,15.5844667 50.9924667,15.5844667 L50.9924667,15.5844667 Z M47.8751333,19.3244667 C46.4998,19.3244667 45.3818,18.2064667 45.3818,16.8311333 L50.3691333,16.8311333 C50.3691333,18.2064667 49.2504667,19.3244667 47.8751333,19.3244667 L47.8751333,19.3244667 Z M43.4058,13.4718 C43.4451333,13.5011333 43.4771333,13.5411333 43.5138,13.5744667 C43.1331333,13.9171333 42.8878,14.4091333 42.8878,14.9611333 C42.8878,15.7724667 43.4111333,16.4584667 44.1344667,16.7164667 L44.1344667,16.8311333 C44.1344667,18.8938 45.8124667,20.5718 47.8751333,20.5718 C49.9384667,20.5718 51.6158,18.8938 51.6158,16.8311333 L51.6158,16.7164667 C52.3398,16.4584667 52.8624667,15.7724667 52.8624667,14.9611333 C52.8624667,14.4078 52.6164667,13.9151333 52.2338,13.5724667 C52.2624667,13.5478 52.2878,13.5151333 52.3178,13.4924667 C54.2204667,12.0871333 55.3564667,9.83913333 55.3564667,7.4798 C55.3564667,5.3538 54.4471333,3.32113333 52.8618,1.90246667 C51.2764667,0.485133333 49.1451333,-0.190866667 47.0158,0.0471333333 C43.7338,0.413133333 40.9878,3.04113333 40.4858,6.2938 C40.0584667,9.0598 41.1771333,11.8104667 43.4058,13.4718 L43.4058,13.4718 Z" id="Fill-4"></path>
                                    <path d="M46.8222667,37.9192667 C45.7249333,37.9192667 44.6929333,38.3466 43.9169333,39.1226 C43.6762667,39.3632667 43.6762667,39.7526 43.9169333,39.9932667 C44.1569333,40.2339333 44.5469333,40.2339333 44.7876,39.9932667 C45.3309333,39.4499333 46.0536,39.1506 46.8222667,39.1506 C48.4089333,39.1506 49.6996,40.4412667 49.6996,42.0279333 C49.6996,43.6146 48.4089333,44.9052667 46.8222667,44.9052667 C45.2356,44.9052667 43.9449333,43.6146 43.9449333,42.0279333 C43.9449333,41.6879333 43.6689333,41.4126 43.3289333,41.4126 C42.9889333,41.4126 42.7136,41.6879333 42.7136,42.0279333 C42.7136,44.2939333 44.5569333,46.1366 46.8222667,46.1366 C49.0876,46.1366 50.9309333,44.2939333 50.9309333,42.0279333 C50.9309333,39.7626 49.0876,37.9192667 46.8222667,37.9192667" id="Fill-6"></path>
                                </g>
                            </g>
                        </g>
                    </g>
                </g>
            </g>
        </g>
    </g>
</svg>