<?xml version="1.0" encoding="UTF-8"?>
<svg width="213px" height="105px" viewBox="0 0 213 105" version="1.1" xmlns="http://www.w3.org/2000/svg" xmlns:xlink="http://www.w3.org/1999/xlink">
    <!-- Generator: Sketch 43.1 (39012) - http://www.bohemiancoding.com/sketch -->
    <title>Group 37</title>
    <desc>Created with Sketch.</desc>
    <defs></defs>
    <g id="ENERGÃA-CERO-WEB" stroke="none" stroke-width="1" fill="none" fill-rule="evenodd">
        <g id="1.HOME-" transform="translate(-375.000000, -2199.000000)">
            <g id="Group-47" transform="translate(375.000000, 1996.000000)">
                <g id="Group-46" transform="translate(0.000000, 204.000000)">
                    <g id="Group-23">
                        <g id="Group-37">
                            <g id="Group-10" transform="translate(109.000000, 0.000000)">
                                <circle id="Oval" stroke="#C6D978" stroke-width="2" cx="51.5" cy="51.5" r="51.5"></circle>
                                <g id="Page-1" transform="translate(21.000000, 21.000000)" fill="#606060">
                                    <path d="M41.3601234,48.2607889 C43.1548195,49.6360991 44.257361,51.8213359 44.257361,54.0404827 L44.257361,57.9349126 L41.3601234,57.9349126 L41.3601234,48.2607889 Z M16.8111731,48.2607889 L16.8111731,57.9349126 L13.9139356,57.9349126 L13.9139356,54.0404827 C13.9139356,51.821988 15.016477,49.6367512 16.8111731,48.2607889 L16.8111731,48.2607889 Z M57.9042118,26.627531 C57.9565875,27.2979051 57.7411179,27.9474115 57.297582,28.4554089 C56.8109521,29.0136192 56.1022229,29.3338076 55.3530516,29.3338076 C54.7457588,29.3338076 54.1563665,29.1186097 53.6942671,28.7279929 L30.8074162,9.4325668 C30.617803,9.27214654 30.375151,9.18411104 30.1245433,9.18411104 C29.8765875,9.18411104 29.6352615,9.27084232 29.4456483,9.42930622 C29.4456483,9.42930622 6.38907368,28.6666941 6.31548252,28.7279929 C5.85338308,29.1173055 5.26332783,29.3311992 4.65338308,29.3311992 C3.90553777,29.3311992 3.19813446,29.012315 2.71216761,28.456061 C1.79526153,27.4035477 1.91791346,25.8149959 2.98531678,24.9150774 L28.4617809,3.66265465 C28.9271952,3.27073363 29.5179135,3.05488362 30.1252063,3.05488362 C30.7324991,3.05488362 31.3225543,3.27073363 31.7879687,3.66200254 L57.0204549,24.912469 C57.537582,25.3480817 57.8518361,25.957157 57.9042118,26.627531 L57.9042118,26.627531 Z M37.1581345,55.4653537 C36.6217809,55.4653537 36.1848748,55.8950974 36.1848748,56.4226583 L36.1848748,57.9349126 L30.0589079,57.9349126 L30.0589079,51.2474749 L34.3457588,46.8196151 L36.1848748,46.8196151 L36.1848748,51.6583072 C36.1848748,52.1865202 36.6217809,52.6156118 37.1581345,52.6156118 C37.694488,52.6156118 38.1307311,52.1865202 38.1307311,51.6583072 L38.1307311,46.8893914 C38.5663113,46.9519944 38.9965875,47.057637 39.4136041,47.2050149 L39.4136041,57.9349126 L38.1307311,57.9349126 L38.1307311,56.4226583 C38.1307311,55.8950974 37.694488,55.4653537 37.1581345,55.4653537 L37.1581345,55.4653537 Z M25.215151,44.3344054 C26.4290737,44.9297863 27.7291842,45.2310633 29.0856483,45.2310633 C30.4421124,45.2310633 31.7428858,44.9297863 32.9561455,44.3344054 L32.9561455,45.4795191 L29.0856483,49.4769831 L25.215151,45.4795191 L25.215151,44.3344054 Z M21.9864218,36.0962386 L21.9864218,33.8770917 L36.1848748,33.8770917 L36.1848748,36.0962386 C36.1848748,36.558588 36.1384659,37.0248501 36.0416704,37.5074151 C35.6889632,39.2407363 34.7117256,40.7921176 33.2896262,41.8765845 C32.055814,42.8188905 30.6018914,43.3171062 29.0856483,43.3171062 C27.5694052,43.3171062 26.1148195,42.8188905 24.8803444,41.8752803 C24.5965875,41.6594303 24.3274162,41.4214084 24.0794604,41.1670836 C23.0836593,40.1465239 22.4094052,38.8814211 22.1243223,37.4826347 C22.0328306,37.0255022 21.9864218,36.558588 21.9864218,36.0962386 L21.9864218,36.0962386 Z M20.0631068,36.7203125 C19.3311731,36.649232 18.7576925,36.0401567 18.7576925,35.3019627 C18.7576925,34.5715941 19.3192394,33.9677357 20.0405654,33.8868735 L20.0405654,36.0962386 C20.0405654,36.3016547 20.0478582,36.5103315 20.0631068,36.7203125 L20.0631068,36.7203125 Z M39.4136041,35.3019627 C39.4136041,36.030375 38.855372,36.6329291 38.1088527,36.7170519 C38.1234383,36.507723 38.1307311,36.2996984 38.1307311,36.0962386 L38.1307311,33.8868735 C38.8520571,33.9677357 39.4136041,34.5715941 39.4136041,35.3019627 L39.4136041,35.3019627 Z M39.4136041,31.3325396 C39.4136041,31.5007853 39.3473057,31.6592492 39.2259798,31.7779341 C39.1046538,31.8972711 38.9435488,31.9631347 38.7724991,31.9631347 L19.3987974,31.9631347 C19.0454273,31.9631347 18.7576925,31.6801168 18.7576925,31.3325396 C18.7576925,31.1636419 18.8239908,31.005178 18.9453168,30.885841 C19.0666427,30.7665039 19.2277477,30.7012925 19.3987974,30.7012925 L38.7724991,30.7012925 C39.1258693,30.7012925 39.4136041,30.9843103 39.4136041,31.3325396 L39.4136041,31.3325396 Z M25.856919,27.5254932 C26.3932726,27.5254932 26.8295157,27.0957495 26.8295157,26.5681886 L26.8295157,21.8038375 C26.8295157,21.3727896 27.2027753,20.9352205 27.4712836,20.9352205 L30.7000129,20.9352205 C30.9685212,20.9352205 31.3417809,21.3727896 31.3417809,21.8038375 L31.3417809,26.5681886 C31.3417809,27.0957495 31.778024,27.5254932 32.3143776,27.5254932 C32.8513941,27.5254932 33.2876372,27.0957495 33.2876372,26.5681886 L33.2876372,23.2404465 C35.6617809,24.1579721 37.3802339,26.2995173 37.7322781,28.7873354 L20.4390184,28.7873354 C20.7917256,26.2988651 22.5095157,24.15732 24.8836593,23.2404465 L24.8836593,26.5681886 C24.8836593,27.0957495 25.3205654,27.5254932 25.856919,27.5254932 L25.856919,27.5254932 Z M21.0131621,55.4653537 C20.4768085,55.4653537 20.0405654,55.8950974 20.0405654,56.4226583 L20.0405654,57.9349126 L18.7576925,57.9349126 L18.7576925,47.2043628 C19.175372,47.057637 19.6056483,46.9519944 20.0405654,46.8893914 L20.0405654,51.6583072 C20.0405654,52.1865202 20.4768085,52.6156118 21.0131621,52.6156118 C21.5501787,52.6156118 21.9864218,52.1865202 21.9864218,51.6583072 L21.9864218,46.8196151 L23.8255378,46.8196151 L28.1130516,51.2474749 L28.1130516,57.9349126 L21.9864218,57.9349126 L21.9864218,56.4226583 C21.9864218,55.8950974 21.5501787,55.4653537 21.0131621,55.4653537 L21.0131621,55.4653537 Z M44.69493,49.0459352 C43.777361,47.6491052 42.5103997,46.529424 41.0299577,45.8055765 C40.8854273,45.6797183 40.7103997,45.6008124 40.5207864,45.5753799 C39.4480792,45.1306376 38.3170295,44.9050059 37.1581345,44.9050059 L34.9020019,44.9050059 L34.9020019,43.0477828 C36.2697367,41.8752803 37.25493,40.3552006 37.7587974,38.6414428 L37.9649853,38.6414428 C39.8372505,38.6414428 41.3601234,37.143535 41.3601234,35.3019627 C41.3601234,34.5168164 41.0803444,33.7636238 40.5691842,33.163026 C40.5804549,33.1525922 40.5910626,33.1421583 40.6016704,33.1317245 C41.0909521,32.6511158 41.3601234,32.0120433 41.3601234,31.3325396 C41.3601234,30.2793742 40.7004549,29.3390245 39.7086317,28.9601458 C39.3797919,25.3141717 36.7875267,22.2146699 33.216035,21.1980228 C32.9621124,20.0998614 32.0345985,19.0212635 30.7000129,19.0212635 L27.4712836,19.0212635 C26.136698,19.0212635 25.2098472,20.0998614 24.9552615,21.1980228 C21.3844328,22.2146699 18.7921676,25.3128675 18.4626648,28.9588416 C18.1278582,29.0866561 17.8275267,29.27903 17.5696262,29.5327027 C17.0803444,30.0139634 16.8111731,30.653036 16.8111731,31.3325396 C16.8111731,32.0244335 17.097582,32.6824174 17.6027753,33.1623739 C17.0916151,33.7629717 16.8111731,34.5168164 16.8111731,35.3019627 C16.8111731,37.143535 18.3340461,38.6414428 20.2063113,38.6414428 L20.4098472,38.6414428 C20.8328306,40.0754433 21.6138251,41.4044534 22.6752615,42.492181 C22.8595709,42.6806422 23.0591289,42.867147 23.2692947,43.0471307 L23.2692947,44.9050059 L21.0131621,44.9050059 C19.8542671,44.9050059 18.7232173,45.1306376 17.6505101,45.5753799 C17.4608969,45.6008124 17.2858693,45.6797183 17.1413389,45.8055765 C15.6608969,46.529424 14.3939356,47.6491052 13.4763665,49.0459352 C12.4898472,50.5477556 11.9680792,52.2752079 11.9680792,54.0404827 L11.9680792,57.9349126 L9.30620076,57.9349126 L9.30620076,28.9405824 L30.1205654,11.5734598 L50.7274162,28.9262358 L50.7267532,57.9349126 L46.2032173,57.9349126 L46.2032173,54.0404827 C46.2032173,52.2752079 45.6821124,50.5477556 44.69493,49.0459352 L44.69493,49.0459352 Z M45.5932726,12.5594575 L45.5932726,6.57956435 L50.7267532,6.57956435 L50.7267532,16.8595028 L45.5932726,12.5594575 Z M59.9979135,26.4690671 C59.9031068,25.2496124 59.3302892,24.140365 58.3862008,23.3447849 L52.8025543,18.6365157 L52.8025543,5.54726655 C52.8025543,4.97797029 52.3311731,4.51496875 51.7523886,4.51496875 L44.5431068,4.51496875 C43.9683002,4.51496875 43.5181345,4.96818857 43.5181345,5.54726655 L43.5181345,10.7824445 L33.1537146,2.09497056 C32.3037698,1.37829635 31.2270847,0.983114754 30.1225543,0.983114754 C29.0213389,0.983114754 27.9473057,1.37699212 27.0993499,2.0923621 L1.62288584,23.3441328 C0.680786391,24.1384087 0.109294679,25.2483081 0.0138250654,26.4697192 C-0.0809815644,27.6904782 0.31084164,28.8740667 1.11968142,29.801374 C2.00343833,30.8128041 3.30023391,31.3931863 4.6765875,31.3931863 C5.21028915,31.3931863 5.73205711,31.3058029 6.2286317,31.1342967 L7.23106263,30.7880237 L7.23106263,58.9672104 C7.23106263,59.5462884 7.68189136,59.9995082 8.25669799,59.9995082 L51.7523886,59.9995082 C52.3311731,59.9995082 52.8018914,59.5371588 52.8018914,58.9672104 L52.8018914,30.7867195 L53.8056483,31.1356009 C54.3062008,31.3097156 54.8286317,31.3984032 55.3590184,31.3984032 C56.7181345,31.3984032 58.0049853,30.8160647 58.8913941,29.8000697 C59.7002339,28.8714582 60.0933831,27.6885219 59.9979135,26.4690671 L59.9979135,26.4690671 Z" id="Fill-1"></path>
                                </g>
                            </g>
                            <g id="Group-19" transform="translate(0.000000, 43.000000)">
                                <path d="M6.5,18.2 C4.4666565,18.2 2.92083863,17.4291744 1.8625,15.8875 C0.804161375,14.3458256 0.275,12.0833483 0.275,9.1 C0.275,6.11665175 0.804161375,3.85417437 1.8625,2.3125 C2.92083863,0.770825625 4.4666565,0 6.5,0 C8.5333435,0 10.0791614,0.770825625 11.1375,2.3125 C12.1958386,3.85417437 12.725,6.1083185 12.725,9.075 C12.725,12.0583483 12.1958386,14.3249923 11.1375,15.875 C10.0791614,17.4250077 8.5333435,18.2 6.5,18.2 Z M6.5,16.475 C7.91667375,16.475 8.96249663,15.875006 9.6375,14.675 C10.3125034,13.474994 10.65,11.608346 10.65,9.075 C10.65,6.55832075 10.31667,4.70833925 9.65,3.525 C8.98333,2.34166075 7.9333405,1.75 6.5,1.75 C5.08332625,1.75 4.03750338,2.34166075 3.3625,3.525 C2.68749663,4.70833925 2.35,6.55832075 2.35,9.075 C2.35,11.5916792 2.68749663,13.4541606 3.3625,14.6625 C4.03750338,15.8708394 5.08332625,16.475 6.5,16.475 Z M23.2,16.275 L27.125,16.275 L27.125,18 L17.2,18 L17.2,16.275 L21.125,16.275 L21.125,2.75 L17.475,5.075 L17.475,3.1 L22.025,0.2 L23.2,0.2 L23.2,16.275 Z" id="01" fill="#618E4A"></path>
                                <path d="M44.5,9 L63.5,9" id="Line" stroke="#618E4A" stroke-width="2" stroke-linecap="square"></path>
                            </g>
                        </g>
                    </g>
                </g>
            </g>
        </g>
    </g>
</svg>